<svg width="141" height="71" viewBox="0 0 141 71" fill="none" xmlns="http://www.w3.org/2000/svg">
<g filter="url(#filter0_d_3093_135733)">
<path d="M22.6723 27.2357L7.98353 52.2067C4.452 58.2103 8.78071 65.7787 15.746 65.7787H29.7163C32.0219 65.7787 34.1296 64.4761 35.1607 62.4139C37.1843 58.3667 34.2408 53.6048 29.7159 53.6048H27.3913C22.8261 53.6048 16.7391 50.5613 16.7391 44.4743C16.7391 38.3874 21.3043 35.3439 24.3478 35.3439C28.913 35.3439 31.3478 38.3874 32.8696 41.4309L45.4631 62.8666C46.523 64.6707 48.459 65.7787 50.5514 65.7787C55.1156 65.7787 57.9522 60.8192 55.638 56.8851L38.1972 27.2357C34.7151 21.3161 26.1544 21.3161 22.6723 27.2357Z" fill="white"/>
<path d="M77.7625 52.5826L97.1718 19.5868C98.6152 17.133 96.846 14.0397 93.9991 14.0397C92.3946 14.0397 90.9712 15.0718 90.319 16.5378C88.0908 21.5457 81.9077 32.3376 70 32.3376C58.0923 32.3376 51.9092 21.5457 49.6811 16.5378C49.0288 15.0718 47.6054 14.0397 46.0009 14.0397C43.1541 14.0397 41.3849 17.133 42.8283 19.5868L62.2376 52.5826C65.7197 58.5022 74.2804 58.5022 77.7625 52.5826Z" fill="white"/>
<path d="M101.803 27.2357L87.114 52.2067C83.5825 58.2103 87.9112 65.7787 94.8765 65.7787H108.847C111.152 65.7787 113.26 64.4761 114.291 62.4139C116.315 58.3667 113.371 53.6048 108.846 53.6048H106.522C101.957 53.6048 95.8696 50.5613 95.8696 44.4743C95.8696 38.3874 100.435 35.3439 103.478 35.3439C108.044 35.3439 110.478 38.3874 112 41.4309L124.594 62.8666C125.653 64.6707 127.589 65.7787 129.682 65.7787C134.246 65.7787 137.083 60.8192 134.769 56.8851L117.328 27.2357C113.846 21.3161 105.285 21.3161 101.803 27.2357Z" fill="white"/>
<circle cx="69.9999" cy="14.3367" r="9.13044" fill="white"/>
</g>
<defs>
<filter id="filter0_d_3093_135733" x="-5" y="0" width="150" height="71" filterUnits="userSpaceOnUse" color-interpolation-filters="sRGB">
<feFlood flood-opacity="0" result="BackgroundImageFix"/>
<feColorMatrix in="SourceAlpha" type="matrix" values="0 0 0 0 0 0 0 0 0 0 0 0 0 0 0 0 0 0 127 0" result="hardAlpha"/>
<feOffset/>
<feGaussianBlur stdDeviation="2.5"/>
<feComposite in2="hardAlpha" operator="out"/>
<feColorMatrix type="matrix" values="0 0 0 0 0.816667 0 0 0 0 0.266667 0 0 0 0 1 0 0 0 0.4 0"/>
<feBlend mode="normal" in2="BackgroundImageFix" result="effect1_dropShadow_3093_135733"/>
<feBlend mode="normal" in="SourceGraphic" in2="effect1_dropShadow_3093_135733" result="shape"/>
</filter>
</defs>
</svg>
